<?xml version="1.0" encoding="UTF-8" standalone="no"?>
<!-- Generator: Adobe Illustrator 21.1.0, SVG Export Plug-In . SVG Version: 6.00 Build 0)  -->

<svg
   version="1.1"
   id="Icons"
   x="0px"
   y="0px"
   viewBox="0 0 48 48"
   style="enable-background:new 0 0 48 48;"
   xml:space="preserve"
   sodipodi:docname="icon.svg"
   inkscape:version="1.3.2 (1:1.3.2+202311252150+091e20ef0f)"
   xmlns:inkscape="http://www.inkscape.org/namespaces/inkscape"
   xmlns:sodipodi="http://sodipodi.sourceforge.net/DTD/sodipodi-0.dtd"
   xmlns="http://www.w3.org/2000/svg"
   xmlns:svg="http://www.w3.org/2000/svg"><defs
   id="defs2">
			
			
			
		
				
				
				
			</defs><sodipodi:namedview
   id="namedview2"
   pagecolor="#505050"
   bordercolor="#eeeeee"
   borderopacity="1"
   inkscape:showpageshadow="0"
   inkscape:pageopacity="0"
   inkscape:pagecheckerboard="0"
   inkscape:deskcolor="#d1d1d1"
   inkscape:zoom="8.28125"
   inkscape:cx="26.384906"
   inkscape:cy="24.150944"
   inkscape:window-width="1920"
   inkscape:window-height="1005"
   inkscape:window-x="874"
   inkscape:window-y="1080"
   inkscape:window-maximized="1"
   inkscape:current-layer="g2" />
<style
   type="text/css"
   id="style1">
	.st0{opacity:0.15;fill:#45413C;}
	.st1{fill:#BF8256;}
	.st2{fill:#915E3A;}
	.st3{fill:none;stroke:#45413C;stroke-linecap:round;stroke-linejoin:round;stroke-miterlimit:10;}
	.st4{fill:#DEA47A;}
	.st5{fill:#DAEDF7;stroke:#45413C;stroke-linecap:round;stroke-linejoin:round;stroke-miterlimit:10;}
	.st6{fill:#BF8256;stroke:#45413C;stroke-linecap:round;stroke-linejoin:round;stroke-miterlimit:10;}
	.st7{fill:#FF6242;}
	.st8{fill:#FF866E;}
	.st9{fill:#DEBB7E;}
	.st10{fill:#B89558;}
	.st11{fill:#656769;}
	.st12{fill:#525252;}
	.st13{fill:#E04122;}
	.st14{fill:#FFFFFF;}
	.st15{fill:#F0F0F0;}
	.st16{fill:#00B8F0;}
	.st17{fill:#4ACFFF;}
	.st18{fill:#C0DCEB;}
	.st19{fill:#8CA4B8;}
	.st20{fill:#FF6242;stroke:#45413C;stroke-linecap:round;stroke-linejoin:round;stroke-miterlimit:10;}
	.st21{fill:#87898C;}
	.st22{fill:#E0E0E0;}
	.st23{fill:#E8F4FA;stroke:#45413C;stroke-linecap:round;stroke-linejoin:round;stroke-miterlimit:10;}
	.st24{fill:#656769;stroke:#45413C;stroke-linecap:round;stroke-linejoin:round;stroke-miterlimit:10;}
	.st25{fill:#DAEDF7;}
	.st26{fill:#E8F4FA;}
	.st27{fill:#ADC4D9;stroke:#45413C;stroke-linecap:round;stroke-linejoin:round;stroke-miterlimit:10;}
	.st28{fill:#87898C;stroke:#45413C;stroke-linecap:round;stroke-linejoin:round;stroke-miterlimit:10;}
	.st29{fill:#BDBEC0;}
	.st30{fill:#FFFFFF;stroke:#45413C;stroke-linecap:round;stroke-linejoin:round;stroke-miterlimit:10;}
	.st31{fill:#ADC4D9;}
	.st32{fill:none;stroke:#00AED9;stroke-linecap:round;stroke-linejoin:round;stroke-miterlimit:10;}
	.st33{fill:#FFFACF;}
	.st34{fill:#FFE500;}
	.st35{fill:#915E3A;stroke:#45413C;stroke-linecap:round;stroke-linejoin:round;stroke-miterlimit:10;}
	.st36{fill:#FFAA54;}
	.st37{fill:#627B8C;stroke:#45413C;stroke-linecap:round;stroke-linejoin:round;stroke-miterlimit:10;}
	.st38{fill:#FFFEF2;}
	.st39{fill:#FFFCE5;stroke:#45413C;stroke-linecap:round;stroke-linejoin:round;stroke-miterlimit:10;}
	.st40{fill:#00F5BC;}
	.st41{fill:#FFFCE5;}
	.st42{fill:#FFFEF2;stroke:#45413C;stroke-linecap:round;stroke-linejoin:round;stroke-miterlimit:10;}
	.st43{fill:#8CFFE4;}
	.st44{fill:#FFF5E3;}
	.st45{fill:#F7E5C6;}
	.st46{fill:#F7E5C6;stroke:#45413C;stroke-linecap:round;stroke-linejoin:round;stroke-miterlimit:10;}
	.st47{fill:#F0D5A8;}
	.st48{fill:#FF87AF;stroke:#45413C;stroke-linecap:round;stroke-linejoin:round;stroke-miterlimit:10;}
	.st49{fill:#45413C;}
	.st50{fill:#BDBEC0;stroke:#45413C;stroke-linecap:round;stroke-linejoin:round;stroke-miterlimit:10;}
	.st51{fill:#E0E0E0;stroke:#45413C;stroke-linecap:round;stroke-linejoin:round;stroke-miterlimit:10;}
	.st52{fill:#DEBB7E;stroke:#45413C;stroke-linecap:round;stroke-linejoin:round;stroke-miterlimit:10;}
	.st53{fill:#F5EBFF;stroke:#45413C;stroke-linecap:round;stroke-linejoin:round;stroke-miterlimit:10;}
	.st54{fill:#BF8DF2;stroke:#45413C;stroke-linecap:round;stroke-linejoin:round;stroke-miterlimit:10;}
	.st55{fill:#E4FFD1;stroke:#45413C;stroke-linecap:round;stroke-linejoin:round;stroke-miterlimit:10;}
	.st56{fill:#F0FFE5;}
	.st57{fill:#C8FFA1;stroke:#45413C;stroke-linecap:round;stroke-linejoin:round;stroke-miterlimit:10;}
	.st58{fill:#6DD627;stroke:#45413C;stroke-linecap:round;stroke-linejoin:round;stroke-miterlimit:10;}
	.st59{fill:#E5FEFF;}
	.st60{fill:#FFAA54;stroke:#45413C;stroke-linecap:round;stroke-linejoin:round;stroke-miterlimit:10;}
	.st61{fill:#9CEB60;stroke:#45413C;stroke-linecap:round;stroke-linejoin:round;stroke-miterlimit:10;}
	.st62{fill:#FFF48C;}
	.st63{fill:#00B8F0;stroke:#45413C;stroke-linecap:round;stroke-linejoin:round;stroke-miterlimit:10;}
	.st64{fill:none;stroke:#4F4B45;stroke-linejoin:round;stroke-miterlimit:10;}
	.st65{fill:#FFFFFF;stroke:#4F4B45;stroke-linejoin:round;stroke-miterlimit:10;}
	.st66{fill:#FFF5E3;stroke:#4F4B45;stroke-linejoin:round;stroke-miterlimit:10;}
	.st67{fill:#F7E5C6;stroke:#4F4B45;stroke-linejoin:round;stroke-miterlimit:10;}
	.st68{fill:#6DD627;}
	.st69{fill:#EBCB00;}
	.st70{fill:#46B000;}
	.st71{fill:none;stroke:#E0E0E0;stroke-linecap:round;stroke-linejoin:round;stroke-miterlimit:10;}
	.st72{fill:#9CEB60;}
	.st73{fill:#FFCC99;}
	.st74{fill:#BF8DF2;}
	.st75{fill:#9F5AE5;}
	.st76{fill:#DABFF5;}
	.st77{fill:#F0F0F0;stroke:#45413C;stroke-linecap:round;stroke-linejoin:round;stroke-miterlimit:10;}
	.st78{fill:#E5F8FF;}
	.st79{fill:#B8ECFF;}
	.st80{fill:#D9FDFF;}
	.st81{fill:#C0DCEB;stroke:#45413C;stroke-linecap:round;stroke-linejoin:round;stroke-miterlimit:10;}
	.st82{fill:#46B000;stroke:#45413C;stroke-linecap:round;stroke-linejoin:round;stroke-miterlimit:10;}
	.st83{fill:none;stroke:#FFFFFF;stroke-miterlimit:10;}
	.st84{fill:none;stroke:#FFFFFF;stroke-linecap:round;stroke-linejoin:round;stroke-miterlimit:10;}
	.st85{fill:#FFE500;stroke:#45413C;stroke-linecap:round;stroke-linejoin:round;stroke-miterlimit:10;}
	.st86{fill:#80DDFF;stroke:#45413C;stroke-linecap:round;stroke-linejoin:round;stroke-miterlimit:10;}
	.st87{fill:#FFFFFF;stroke:#45413C;stroke-linejoin:round;stroke-miterlimit:10;}
	.st88{fill:#009FD9;stroke:#45413C;stroke-linecap:round;stroke-linejoin:round;stroke-miterlimit:10;}
	.st89{fill:#E04122;stroke:#45413C;stroke-linecap:round;stroke-linejoin:round;stroke-miterlimit:10;}
	.st90{fill:#009FD9;}
	.st91{fill:#FFFFFF;stroke:#45413C;stroke-miterlimit:10;}
	.st92{fill:#009FD9;stroke:#45413C;stroke-miterlimit:10;}
	.st93{fill:#FF8A14;stroke:#45413C;stroke-linecap:round;stroke-linejoin:round;stroke-miterlimit:10;}
	.st94{fill:none;stroke:#009FD9;stroke-linecap:round;stroke-linejoin:round;stroke-miterlimit:10;}
	.st95{fill:#525252;stroke:#45413C;stroke-linecap:round;stroke-linejoin:round;stroke-miterlimit:10;}
	.st96{fill:none;stroke:#46B000;stroke-linecap:round;stroke-linejoin:round;stroke-miterlimit:10;}
	.st97{fill:none;stroke:#E04122;stroke-linecap:round;stroke-linejoin:round;stroke-miterlimit:10;}
	.st98{fill:#6DD627;stroke:#45413C;stroke-miterlimit:10;}
	.st99{fill:none;stroke:#45413C;stroke-linejoin:round;stroke-miterlimit:10;}
	.st100{fill:#46B000;stroke:#45413C;stroke-miterlimit:10;}
	.st101{fill:#00DFEB;}
	.st102{fill:#00AD85;}
	.st103{fill:#E04122;stroke:#45413C;stroke-miterlimit:10;}
</style>
<g
   id="g2">
	<g
   id="g1">
		
		
		
	</g>
	
	
	
	
<path
   id="XMLID_17539_"
   class="st1"
   d="m 35.5,39.100211 c 0.3,0.7 0.1,1.5 -0.6,1.9 -1.8,1.1 -4.7,2.899999 -10.9,2.899999 -6.2,0 -9.1,-1.799999 -10.8,-2.899999 -0.7,-0.4 -0.9,-1.200001 -0.6,-1.9 l 1.3,-4.8 c 0,0 4.5,2.2 10.1,2.2 5.6,0 10.1,-2.2 10.1,-2.2 z"
   style="fill:#b37447;fill-opacity:1"
   sodipodi:nodetypes="ccscccscc" /><path
   id="XMLID_17539_-5"
   style="fill:#834f2b;fill-opacity:1"
   class="st1"
   d="M 13.900391 34.300781 L 13.617188 35.345703 C 13.728626 35.6469 13.95434 36.015261 14.369141 36.464844 C 15.939379 38.166751 19.266411 40.414062 24.066406 40.414062 C 28.68457 40.414062 33.050695 37.883177 34.480469 35.607422 L 34.099609 34.300781 C 34.099609 34.300781 29.599994 36.5 24 36.5 C 18.400006 36.5 13.900391 34.300781 13.900391 34.300781 z " /><path
   id="XMLID_17537_"
   class="st3"
   d="m 36.5,39.100211 c 0.3,0.7 0.1,1.5 -0.6,1.9 -1.8,1.1 -5.7,2.899999 -11.9,2.899999 -6.2,0 -10.2,-1.799999 -11.9,-2.899999 -0.7,-0.4 -0.9,-1.200001 -0.6,-1.9 l 2.4,-4.8 c 0,0 4.5,2.2 10.1,2.2 5.6,0 10.1,-2.2 10.1,-2.2 z"
   style="stroke:none" /><g
   id="XMLID_17540_"
   transform="translate(0,-0.5997895)">
			<circle
   id="XMLID_17549_"
   class="st74"
   cx="24"
   cy="23.299999"
   r="15.3" /><path
   id="XMLID_17546_"
   class="st75"
   d="M 24,8 C 15.6,8 8.7,14.8 8.7,23.3 c 0,8.4 6.8,15.3 15.3,15.3 8.5,0 15.3,-6.8 15.3,-15.3 C 39.3,14.8 32.4,8 24,8 Z m 0,25 C 17.2,33 11.7,27.5 11.7,20.7 11.7,13.9 17.2,8.4 24,8.4 30.8,8.4 36.3,13.9 36.3,20.7 36.3,27.5 30.8,33 24,33 Z" /><circle
   id="XMLID_17545_"
   class="st3"
   cx="24"
   cy="23.299999"
   r="15.3"
   style="stroke:#d8bef5;stroke-width:0.6;stroke-dasharray:none;stroke-opacity:1" />
			<circle
   id="XMLID_17543_"
   class="st76"
   cx="30"
   cy="18.1"
   r="3.7"
   style="fill:#ecdefa;fill-opacity:1" />
			<circle
   id="XMLID_17542_"
   class="st76"
   cx="22.9"
   cy="19.9"
   r="1.1"
   style="fill:#fefeff;fill-opacity:1" />
			<circle
   id="XMLID_17541_"
   class="st76"
   cx="23.6"
   cy="14"
   r="1.9"
   style="fill:#f9f9f9" />
		</g><path
   style="fill:#ffffff;fill-opacity:1;stroke:none;stroke-width:1.65165;stroke-linecap:round;stroke-linejoin:round;stroke-opacity:0.439877"
   d="m 11.093155,7.6770936 c 0,0 -0.321188,2.7560504 -1.4115175,3.9119684 -1.0903299,1.155917 -4.2706462,1.336175 -4.2706462,1.336175 0,0 3.1127803,-0.188667 4.245376,0.926149 1.1325957,1.114817 1.4458927,4.226933 1.4458927,4.226933 0,0 0.432324,-3.097262 1.491697,-4.183512 1.059373,-1.086252 3.482221,-1.14346 3.482221,-1.14346 0,0 -2.669484,-0.271212 -3.629639,-1.262381 -0.960155,-0.991169 -1.353384,-3.8118724 -1.353384,-3.8118724 z"
   id="path2"
   sodipodi:nodetypes="czczczczc" /><path
   style="fill:#ffffff;fill-opacity:1;stroke:none;stroke-width:1.21987;stroke-linecap:round;stroke-linejoin:round;stroke-opacity:0.439877"
   d="m 34.640028,3.417 c 0,0 -0.237222,2.0355613 -1.042517,2.8892984 -0.805296,0.8537363 -3.154211,0.9868711 -3.154211,0.9868711 0,0 2.299035,-0.1393455 3.135547,0.6840344 0.836512,0.823381 1.067906,3.1219261 1.067906,3.1219261 0,0 0.319306,-2.2875731 1.101737,-3.0898561 0.782431,-0.8022826 2.571896,-0.8445359 2.571896,-0.8445359 0,0 -1.971626,-0.2003116 -2.680776,-0.9323684 C 34.930459,5.5003127 34.640028,3.417 34.640028,3.417 Z"
   id="path2-0"
   sodipodi:nodetypes="czczczczc" /><path
   style="fill:#ffffff;fill-opacity:1;stroke:none;stroke-width:0.967571;stroke-linecap:round;stroke-linejoin:round;stroke-opacity:0.439877"
   d="m 42.654772,25.699808 c 0,0 -0.188159,1.614558 -0.8269,2.291721 -0.638741,0.677163 -2.501843,0.782762 -2.501843,0.782762 0,0 1.823539,-0.110525 2.48704,0.54256 0.663501,0.653086 0.847037,2.476236 0.847037,2.476236 0,0 0.253265,-1.814448 0.873871,-2.450799 0.620605,-0.636351 2.039965,-0.669865 2.039965,-0.669865 0,0 -1.563846,-0.158883 -2.126326,-0.739533 -0.562482,-0.58065 -0.792844,-2.233082 -0.792844,-2.233082 z"
   id="path2-0-7"
   sodipodi:nodetypes="czczczczc" /><path
   style="fill:#ffffff;fill-opacity:1;stroke:none;stroke-width:0.967571;stroke-linecap:round;stroke-linejoin:round;stroke-opacity:0.439877"
   d="m 9.9087592,32.648702 c 0,0 -0.188159,1.614558 -0.8269,2.291721 -0.638741,0.677163 -2.5018433,0.782762 -2.5018433,0.782762 0,0 1.8235393,-0.110526 2.4870403,0.54256 0.663501,0.653086 0.847037,2.476236 0.847037,2.476236 0,0 0.2532648,-1.814448 0.8738708,-2.450799 0.620605,-0.636351 2.039965,-0.669865 2.039965,-0.669865 0,0 -1.563846,-0.158883 -2.126326,-0.739533 -0.562482,-0.58065 -0.7928438,-2.233082 -0.7928438,-2.233082 z"
   id="path2-0-7-9"
   sodipodi:nodetypes="czczczczc" /></g>
</svg>
