<?xml version="1.0" encoding="UTF-8" standalone="no"?>
<svg
   viewBox="0 0 86 86"
   x="0px"
   y="0px"
   version="1.1"
   id="svg17"
   width="86"
   height="86"
   sodipodi:docname="icon.svg"
   inkscape:version="1.3.2 (1:1.3.2+202311252150+091e20ef0f)"
   xmlns:inkscape="http://www.inkscape.org/namespaces/inkscape"
   xmlns:sodipodi="http://sodipodi.sourceforge.net/DTD/sodipodi-0.dtd"
   xmlns="http://www.w3.org/2000/svg"
   xmlns:svg="http://www.w3.org/2000/svg"
   xmlns:rdf="http://www.w3.org/1999/02/22-rdf-syntax-ns#"
   xmlns:cc="http://creativecommons.org/ns#"
   xmlns:dc="http://purl.org/dc/elements/1.1/">
  <sodipodi:namedview
     id="namedview1"
     pagecolor="#505050"
     bordercolor="#eeeeee"
     borderopacity="1"
     inkscape:showpageshadow="0"
     inkscape:pageopacity="0"
     inkscape:pagecheckerboard="0"
     inkscape:deskcolor="#d1d1d1"
     inkscape:zoom="6.36"
     inkscape:cx="50.235849"
     inkscape:cy="35.377358"
     inkscape:window-width="1920"
     inkscape:window-height="1005"
     inkscape:window-x="874"
     inkscape:window-y="1080"
     inkscape:window-maximized="1"
     inkscape:current-layer="svg17" />
  <defs
     id="defs17" />
  <title
     id="title1">Magic set RTE</title>
  <rect
     style="fill:#4d5264;stroke-width:1.65;stroke-linecap:round;stroke-linejoin:round;fill-opacity:1"
     id="rect1"
     width="92.69738"
     height="92.210152"
     x="-3.500587"
     y="-3.2055166" />
  <g
     id="g17"
     transform="matrix(0.95839558,0,0,0.95839558,-4.4405812,-8.919779)">
    <path
       d="M 62.93,69.25 H 37.38 a 0.75,0.75 0 1 0 0,1.5 h 25.55 a 0.75,0.75 0 1 0 0,-1.5 z"
       id="path1"
       style="fill:#f9f9f9" />
    <path
       d="m 67,54.67 a 0.74,0.74 0 0 0 0.74,-0.63 17.83,17.83 0 0 0 0.21,-2.73 0.75,0.75 0 0 0 -1.5,0 16.19,16.19 0 0 1 -0.19,2.5 0.75,0.75 0 0 0 0.63,0.85 z"
       id="path2"
       style="fill:#f9f9f9" />
    <path
       d="m 61.92,39.8 a 0.75,0.75 0 0 0 0.52,-1.29 C 62.01,38.1 61.55,37.7 61.08,37.33 a 0.75,0.75 0 0 0 -1,0.12 0.76,0.76 0 0 0 0.12,1.06 14.46,14.46 0 0 1 1.25,1.08 0.77,0.77 0 0 0 0.47,0.21 z"
       id="path3"
       style="fill:#f9f9f9" />
    <path
       d="m 41.41,37.62 a 16.1,16.1 0 0 1 8.74,-2.56 0.75,0.75 0 1 0 0,-1.5 17.69,17.69 0 0 0 -9.56,2.8 0.75,0.75 0 0 0 -0.22,1 0.73,0.73 0 0 0 0.63,0.35 0.78,0.78 0 0 0 0.41,-0.09 z"
       id="path4"
       style="fill:#f9f9f9" />
    <path
       d="m 33.15,52.06 a 0.75,0.75 0 0 0 0.75,-0.75 16.07,16.07 0 0 1 1.25,-6.25 0.75,0.75 0 1 0 -1.38,-0.58 17.54,17.54 0 0 0 -1.37,6.83 0.76,0.76 0 0 0 0.75,0.75 z"
       id="path5"
       style="fill:#f9f9f9" />
    <path
       d="m 37.63,50 a 0.76,0.76 0 0 0 0.75,0.75 c 2.32,0 4.49,4.43 4.49,7.1 a 0.75,0.75 0 0 0 1.5,0 c 0,-2.67 2.17,-7.1 4.48,-7.1 a 0.75,0.75 0 0 0 0,-1.5 4.49,4.49 0 0 1 -4.48,-4.48 0.75,0.75 0 0 0 -1.5,0 4.49,4.49 0 0 1 -4.49,4.48 0.76,0.76 0 0 0 -0.75,0.75 z m 6,-2.33 a 6,6 0 0 0 2.75,2.54 9.94,9.94 0 0 0 -2.75,4.12 10.06,10.06 0 0 0 -2.76,-4.12 6.07,6.07 0 0 0 2.75,-2.54 z"
       id="path6"
       style="fill:#f9f9f9" />
    <path
       d="m 71.83,25.15 a 0.75,0.75 0 1 0 -1.5,0 4.49,4.49 0 0 1 -4.48,4.48 0.75,0.75 0 0 0 0,1.5 c 2.31,0 4.48,4.43 4.48,7.1 a 0.75,0.75 0 1 0 1.5,0 c 0,-2.67 2.17,-7.1 4.48,-7.1 a 0.75,0.75 0 0 0 0,-1.5 4.49,4.49 0 0 1 -4.48,-4.48 z m -0.75,9.56 a 9.93,9.93 0 0 0 -2.76,-4.11 6,6 0 0 0 2.76,-2.55 6,6 0 0 0 2.75,2.55 10,10 0 0 0 -2.75,4.11 z"
       id="path7"
       style="fill:#f9f9f9" />
    <path
       d="m 29.23,28.52 a 0.76,0.76 0 0 0 0.75,-0.75 v -0.56 h 0.56 a 0.75,0.75 0 0 0 0,-1.5 H 30 v -0.56 a 0.75,0.75 0 0 0 -1.5,0 v 0.56 h -0.56 a 0.75,0.75 0 0 0 0,1.5 h 0.56 v 0.56 a 0.76,0.76 0 0 0 0.73,0.75 z"
       id="path8"
       style="fill:#f9f9f9" />
    <path
       d="m 78.92,47.94 h -0.55 v -0.56 a 0.75,0.75 0 1 0 -1.5,0 v 0.56 h -0.56 a 0.75,0.75 0 0 0 0,1.5 h 0.56 V 50 a 0.75,0.75 0 0 0 1.5,0 v -0.56 h 0.55 a 0.75,0.75 0 0 0 0,-1.5 z"
       id="path9"
       style="fill:#f9f9f9" />
    <path
       d="m 24.75,61.21 h 0.56 a 0.75,0.75 0 0 0 0,-1.5 h -0.56 v -0.56 a 0.75,0.75 0 0 0 -1.5,0 v 0.56 h -0.56 a 0.75,0.75 0 0 0 0,1.5 h 0.56 v 0.56 a 0.75,0.75 0 1 0 1.5,0 z"
       id="path10"
       style="fill:#f9f9f9" />
    <path
       d="m 56.69,57.1 a 0.75,0.75 0 0 0 -0.75,0.75 v 0.55 h -0.56 a 0.75,0.75 0 0 0 0,1.5 h 0.56 v 0.56 a 0.75,0.75 0 1 0 1.5,0 V 59.9 H 58 a 0.75,0.75 0 0 0 0,-1.5 H 57.44 V 57.85 A 0.74,0.74 0 0 0 56.69,57.1 Z"
       id="path11"
       style="fill:#f9f9f9" />
    <path
       d="m 87.86,74.1 h -6.54 a 0.75,0.75 0 0 0 0,1.5 h 6.54 a 0.75,0.75 0 0 0 0,-1.5 z"
       id="path12"
       style="fill:#f9f9f9" />
    <path
       d="m 91.47,74.32 a 0.75,0.75 0 0 0 -0.22,0.53 0.71,0.71 0 0 0 0.06,0.28 0.82,0.82 0 0 0 0.16,0.25 0.75,0.75 0 0 0 1.06,0 0.82,0.82 0 0 0 0.16,-0.25 0.71,0.71 0 0 0 0.06,-0.28 0.75,0.75 0 0 0 -0.22,-0.53 0.76,0.76 0 0 0 -1.06,0 z"
       id="path13"
       style="fill:#f9f9f9" />
    <path
       d="m 76.31,74.1 h -6.14 l -4.86,-7.29 a 21.68,21.68 0 1 0 -36.83,-15.5 22,22 0 0 0 0.68,5.42 0.75432089,0.75432089 0 1 0 1.46,-0.38 19.84,19.84 0 0 1 -0.64,-5 20.18,20.18 0 1 1 33.74,14.9 H 36.59 a 20.25,20.25 0 0 1 -4.09,-5.16 0.75,0.75 0 1 0 -1.31,0.73 21.45,21.45 0 0 0 3.82,5 l -4.87,7.28 h -4.83 a 0.75,0.75 0 0 0 0,1.5 h 51 a 0.75,0.75 0 0 0 0,-1.5 z m -44.37,0 4.23,-6.35 h 28 l 4.23,6.35 z"
       id="path14"
       style="fill:#f9f9f9" />
    <path
       d="m 20.08,74.1 h -2.62 a 0.75,0.75 0 0 0 0,1.5 h 2.62 a 0.75,0.75 0 0 0 0,-1.5 z"
       id="path15"
       style="fill:#f9f9f9" />
    <path
       d="M 13.54,74.1 H 7 a 0.75,0.75 0 0 0 0,1.5 h 6.54 a 0.75,0.75 0 0 0 0,-1.5 z"
       id="path16"
       style="fill:#f9f9f9" />
  </g>
  <metadata
     id="metadata17">
    <rdf:RDF>
      <cc:Work
         rdf:about="">
        <dc:title>Magic set RTE</dc:title>
      </cc:Work>
    </rdf:RDF>
  </metadata>
</svg>
