<?xml version="1.0" encoding="UTF-8" standalone="no"?>
<svg
   viewBox="0 0 500 86"
   x="0px"
   y="0px"
   version="1.1"
   id="svg17"
   width="500"
   height="86"
   sodipodi:docname="logo.svg"
   inkscape:version="1.3.2 (1:1.3.2+202311252150+091e20ef0f)"
   xmlns:inkscape="http://www.inkscape.org/namespaces/inkscape"
   xmlns:sodipodi="http://sodipodi.sourceforge.net/DTD/sodipodi-0.dtd"
   xmlns="http://www.w3.org/2000/svg"
   xmlns:svg="http://www.w3.org/2000/svg"
   xmlns:rdf="http://www.w3.org/1999/02/22-rdf-syntax-ns#"
   xmlns:cc="http://creativecommons.org/ns#"
   xmlns:dc="http://purl.org/dc/elements/1.1/">
  <sodipodi:namedview
     id="namedview1"
     pagecolor="#505050"
     bordercolor="#eeeeee"
     borderopacity="1"
     inkscape:showpageshadow="0"
     inkscape:pageopacity="0"
     inkscape:pagecheckerboard="0"
     inkscape:deskcolor="#d1d1d1"
     inkscape:zoom="3.18"
     inkscape:cx="185.37736"
     inkscape:cy="70.440252"
     inkscape:window-width="1920"
     inkscape:window-height="1005"
     inkscape:window-x="874"
     inkscape:window-y="1080"
     inkscape:window-maximized="1"
     inkscape:current-layer="svg17" />
  <defs
     id="defs17" />
  <title
     id="title1">Magic set RTE</title>
  <g
     id="g17"
     transform="matrix(1.0943615,0,0,1.0943615,396.49797,-14.133728)">
    <path
       d="M 62.93,69.25 H 37.38 a 0.75,0.75 0 1 0 0,1.5 h 25.55 a 0.75,0.75 0 1 0 0,-1.5 z"
       id="path1"
       style="fill:#f9f9f9" />
    <path
       d="m 67,54.67 a 0.74,0.74 0 0 0 0.74,-0.63 17.83,17.83 0 0 0 0.21,-2.73 0.75,0.75 0 0 0 -1.5,0 16.19,16.19 0 0 1 -0.19,2.5 0.75,0.75 0 0 0 0.63,0.85 z"
       id="path2"
       style="fill:#f9f9f9" />
    <path
       d="m 61.92,39.8 a 0.75,0.75 0 0 0 0.52,-1.29 C 62.01,38.1 61.55,37.7 61.08,37.33 a 0.75,0.75 0 0 0 -1,0.12 0.76,0.76 0 0 0 0.12,1.06 14.46,14.46 0 0 1 1.25,1.08 0.77,0.77 0 0 0 0.47,0.21 z"
       id="path3"
       style="fill:#f9f9f9" />
    <path
       d="m 41.41,37.62 a 16.1,16.1 0 0 1 8.74,-2.56 0.75,0.75 0 1 0 0,-1.5 17.69,17.69 0 0 0 -9.56,2.8 0.75,0.75 0 0 0 -0.22,1 0.73,0.73 0 0 0 0.63,0.35 0.78,0.78 0 0 0 0.41,-0.09 z"
       id="path4"
       style="fill:#f9f9f9" />
    <path
       d="m 33.15,52.06 a 0.75,0.75 0 0 0 0.75,-0.75 16.07,16.07 0 0 1 1.25,-6.25 0.75,0.75 0 1 0 -1.38,-0.58 17.54,17.54 0 0 0 -1.37,6.83 0.76,0.76 0 0 0 0.75,0.75 z"
       id="path5"
       style="fill:#f9f9f9" />
    <path
       d="m 37.63,50 a 0.76,0.76 0 0 0 0.75,0.75 c 2.32,0 4.49,4.43 4.49,7.1 a 0.75,0.75 0 0 0 1.5,0 c 0,-2.67 2.17,-7.1 4.48,-7.1 a 0.75,0.75 0 0 0 0,-1.5 4.49,4.49 0 0 1 -4.48,-4.48 0.75,0.75 0 0 0 -1.5,0 4.49,4.49 0 0 1 -4.49,4.48 0.76,0.76 0 0 0 -0.75,0.75 z m 6,-2.33 a 6,6 0 0 0 2.75,2.54 9.94,9.94 0 0 0 -2.75,4.12 10.06,10.06 0 0 0 -2.76,-4.12 6.07,6.07 0 0 0 2.75,-2.54 z"
       id="path6"
       style="fill:#f9f9f9" />
    <path
       d="m 71.83,25.15 a 0.75,0.75 0 1 0 -1.5,0 4.49,4.49 0 0 1 -4.48,4.48 0.75,0.75 0 0 0 0,1.5 c 2.31,0 4.48,4.43 4.48,7.1 a 0.75,0.75 0 1 0 1.5,0 c 0,-2.67 2.17,-7.1 4.48,-7.1 a 0.75,0.75 0 0 0 0,-1.5 4.49,4.49 0 0 1 -4.48,-4.48 z m -0.75,9.56 a 9.93,9.93 0 0 0 -2.76,-4.11 6,6 0 0 0 2.76,-2.55 6,6 0 0 0 2.75,2.55 10,10 0 0 0 -2.75,4.11 z"
       id="path7"
       style="fill:#f9f9f9" />
    <path
       d="m 29.23,28.52 a 0.76,0.76 0 0 0 0.75,-0.75 v -0.56 h 0.56 a 0.75,0.75 0 0 0 0,-1.5 H 30 v -0.56 a 0.75,0.75 0 0 0 -1.5,0 v 0.56 h -0.56 a 0.75,0.75 0 0 0 0,1.5 h 0.56 v 0.56 a 0.76,0.76 0 0 0 0.73,0.75 z"
       id="path8"
       style="fill:#f9f9f9" />
    <path
       d="m 78.92,47.94 h -0.55 v -0.56 a 0.75,0.75 0 1 0 -1.5,0 v 0.56 h -0.56 a 0.75,0.75 0 0 0 0,1.5 h 0.56 V 50 a 0.75,0.75 0 0 0 1.5,0 v -0.56 h 0.55 a 0.75,0.75 0 0 0 0,-1.5 z"
       id="path9"
       style="fill:#f9f9f9" />
    <path
       d="m 24.75,61.21 h 0.56 a 0.75,0.75 0 0 0 0,-1.5 h -0.56 v -0.56 a 0.75,0.75 0 0 0 -1.5,0 v 0.56 h -0.56 a 0.75,0.75 0 0 0 0,1.5 h 0.56 v 0.56 a 0.75,0.75 0 1 0 1.5,0 z"
       id="path10"
       style="fill:#f9f9f9" />
    <path
       d="m 56.69,57.1 a 0.75,0.75 0 0 0 -0.75,0.75 v 0.55 h -0.56 a 0.75,0.75 0 0 0 0,1.5 h 0.56 v 0.56 a 0.75,0.75 0 1 0 1.5,0 V 59.9 H 58 a 0.75,0.75 0 0 0 0,-1.5 H 57.44 V 57.85 A 0.74,0.74 0 0 0 56.69,57.1 Z"
       id="path11"
       style="fill:#f9f9f9" />
    <path
       d="m 87.86,74.1 h -6.54 a 0.75,0.75 0 0 0 0,1.5 h 6.54 a 0.75,0.75 0 0 0 0,-1.5 z"
       id="path12"
       style="fill:#f9f9f9" />
    <path
       d="m 91.47,74.32 a 0.75,0.75 0 0 0 -0.22,0.53 0.71,0.71 0 0 0 0.06,0.28 0.82,0.82 0 0 0 0.16,0.25 0.75,0.75 0 0 0 1.06,0 0.82,0.82 0 0 0 0.16,-0.25 0.71,0.71 0 0 0 0.06,-0.28 0.75,0.75 0 0 0 -0.22,-0.53 0.76,0.76 0 0 0 -1.06,0 z"
       id="path13"
       style="fill:#f9f9f9" />
    <path
       d="m 76.31,74.1 h -6.14 l -4.86,-7.29 a 21.68,21.68 0 1 0 -36.83,-15.5 22,22 0 0 0 0.68,5.42 0.75432089,0.75432089 0 1 0 1.46,-0.38 19.84,19.84 0 0 1 -0.64,-5 20.18,20.18 0 1 1 33.74,14.9 H 36.59 a 20.25,20.25 0 0 1 -4.09,-5.16 0.75,0.75 0 1 0 -1.31,0.73 21.45,21.45 0 0 0 3.82,5 l -4.87,7.28 h -4.83 a 0.75,0.75 0 0 0 0,1.5 h 51 a 0.75,0.75 0 0 0 0,-1.5 z m -44.37,0 4.23,-6.35 h 28 l 4.23,6.35 z"
       id="path14"
       style="fill:#f9f9f9" />
    <path
       d="m 20.08,74.1 h -2.62 a 0.75,0.75 0 0 0 0,1.5 h 2.62 a 0.75,0.75 0 0 0 0,-1.5 z"
       id="path15"
       style="fill:#f9f9f9" />
    <path
       d="M 13.54,74.1 H 7 a 0.75,0.75 0 0 0 0,1.5 h 6.54 a 0.75,0.75 0 0 0 0,-1.5 z"
       id="path16"
       style="fill:#f9f9f9" />
  </g>
  <metadata
     id="metadata17">
    <rdf:RDF>
      <cc:Work
         rdf:about="">
        <dc:title>Magic set RTE</dc:title>
      </cc:Work>
    </rdf:RDF>
  </metadata>
  <g
     id="g32">
    <path
       style="font-size:62.7857px;font-family:'American Participants';-inkscape-font-specification:'American Participants, Normal';fill:none;stroke:#ffffff;stroke-width:1.65;stroke-linecap:round;stroke-linejoin:round"
       d="M 217.13535,67.77616 H 205.51999 V 48.06145 q 0,-4.96007 -3.89271,-4.96007 -4.26943,0 -4.26943,5.901856 V 67.77616 H 185.7425 V 34.060239 h 11.11307 v 4.394999 q 3.82993,-4.960071 9.98292,-4.960071 5.02286,0 7.72265,3.264857 2.57421,3.013713 2.57421,8.099355 z"
       id="path32" />
    <path
       style="font-size:62.7857px;font-family:'American Participants';-inkscape-font-specification:'American Participants, Normal';fill:none;stroke:#ffffff;stroke-width:1.65;stroke-linecap:round;stroke-linejoin:round"
       d="m 180.09183,45.612808 q -2.1975,-0.4395 -3.82993,-0.4395 -3.82993,0 -5.274,2.888142 -0.94178,1.946357 -0.94178,6.404142 V 67.77616 H 158.43076 V 34.060239 h 11.30143 v 4.897284 q 2.88814,-5.525141 8.72721,-5.525141 0.81621,0 1.63243,0.125571 z"
       id="path31" />
    <path
       style="font-size:62.7857px;font-family:'American Participants';-inkscape-font-specification:'American Participants, Normal';fill:none;stroke:#ffffff;stroke-width:1.65;stroke-linecap:round;stroke-linejoin:round"
       d="m 140.2857,47.998664 q -0.4395,-2.76257 -2.32307,-4.457784 -1.88357,-1.695214 -4.58335,-1.695214 -2.69979,0 -4.58336,1.695214 -1.88357,1.695214 -2.1975,4.457784 z"
       id="path30" />
    <path
       style="font-size:62.7857px;font-family:'American Participants';-inkscape-font-specification:'American Participants, Normal';fill:none;stroke:#ffffff;stroke-width:1.65;stroke-linecap:round;stroke-linejoin:round"
       d="m 152.08942,53.649378 -25.30264,0.06278 q 0.31393,2.699785 2.32307,4.394999 2.00914,1.632429 4.77171,1.632429 4.395,0 6.27857,-3.641571 l 11.23864,2.134714 q -2.26028,5.022856 -7.28314,7.848212 -4.70893,2.637 -10.48521,2.637 -8.03657,0 -13.37336,-4.708928 -5.58792,-4.897284 -5.58792,-12.871069 0,-8.162141 5.274,-13.059425 5.08564,-4.8345 13.31057,-4.8345 9.48064,0 14.31514,5.587928 4.52057,5.211213 4.52057,14.817426 z"
       id="path29" />
    <path
       style="font-size:62.7857px;font-family:'American Participants';-inkscape-font-specification:'American Participants, Normal';fill:none;stroke:#ffffff;stroke-width:1.65;stroke-linecap:round;stroke-linejoin:round"
       d="m 111.59269,43.164165 h -4.70892 V 67.77616 H 95.268412 V 43.164165 h -3.829927 v -9.292284 h 3.829927 v -3.390427 q 0,-6.780856 5.148428,-9.35507 3.64157,-1.758 11.17585,-1.758 v 9.982927 h -0.56507 q -2.57421,-0.06279 -3.39042,0.753428 -0.75343,0.753429 -0.75343,3.327643 v 0.439499 h 4.70892 z"
       id="path28" />
    <path
       style="font-size:62.7857px;font-family:'American Participants';-inkscape-font-specification:'American Participants, Normal';fill:none;stroke:#ffffff;stroke-width:1.65;stroke-linecap:round;stroke-linejoin:round"
       d="M 86.415811,43.164165 H 81.706884 V 67.77616 H 70.091529 V 43.164165 h -3.829928 v -9.292284 h 3.829928 v -3.390427 q 0,-6.780856 5.148427,-9.35507 3.641571,-1.758 11.175855,-1.758 v 9.982927 H 85.85074 q -2.574214,-0.06279 -3.390428,0.753428 -0.753428,0.753429 -0.753428,3.327643 v 0.439499 h 4.708927 z"
       id="path27" />
    <path
       style="font-size:62.7857px;font-family:'American Participants';-inkscape-font-specification:'American Participants, Normal';fill:none;stroke:#ffffff;stroke-width:1.65;stroke-linecap:round;stroke-linejoin:round"
       d="M 60.296997,67.77616 H 48.681643 V 33.871881 h 11.615354 z"
       id="path26" />
    <path
       style="font-size:62.7857px;font-family:'American Participants';-inkscape-font-specification:'American Participants, Normal';fill:none;stroke:#ffffff;stroke-width:1.65;stroke-linecap:round;stroke-linejoin:round"
       d="m 60.673712,25.584169 q 0,2.699785 -1.758,4.457785 -1.695214,1.695214 -4.457785,1.695214 -2.699785,0 -4.457785,-1.695214 -1.757999,-1.758 -1.757999,-4.520571 0,-2.699785 1.757999,-4.394999 1.758,-1.758 4.457785,-1.758 2.762571,0 4.457785,1.758 1.758,1.695214 1.758,4.457785 z"
       id="path25" />
    <path
       style="font-size:62.7857px;font-family:'American Participants';-inkscape-font-specification:'American Participants, Normal';fill:none;stroke:#ffffff;stroke-width:1.65;stroke-linecap:round;stroke-linejoin:round"
       d="M 42.089228,19.807884 21.935018,57.542091 H 40.142871 V 67.77616 H 2.8481643 L 23.06516,29.665239 H 5.1084495 v -9.857355 z"
       id="text1" />
  </g>
  <circle
     style="fill:#ffffff;fill-opacity:1;stroke:none;stroke-width:1.65;stroke-linecap:round;stroke-linejoin:round;stroke-dasharray:none"
     id="path24"
     cx="280.34467"
     cy="54.954399"
     r="2.7680788" />
  <circle
     style="fill:#ffffff;fill-opacity:1;stroke:none;stroke-width:1.65;stroke-linecap:round;stroke-linejoin:round;stroke-dasharray:none"
     id="path24-2"
     cx="286.12357"
     cy="61.266788"
     r="2.7680788" />
  <circle
     style="fill:#ffffff;fill-opacity:1;stroke:none;stroke-width:0.951707;stroke-linecap:round;stroke-linejoin:round;stroke-dasharray:none"
     id="path24-2-6"
     cx="226.02887"
     cy="44.50798"
     r="1.5966069" />
  <circle
     style="fill:#ffffff;fill-opacity:1;stroke:none;stroke-width:0.951707;stroke-linecap:round;stroke-linejoin:round;stroke-dasharray:none"
     id="path24-2-6-6"
     cx="254.79451"
     cy="57.325546"
     r="1.5966069" />
  <circle
     style="fill:#ffffff;fill-opacity:1;stroke:none;stroke-width:0.951707;stroke-linecap:round;stroke-linejoin:round;stroke-dasharray:none"
     id="path24-2-6-8"
     cx="258.84189"
     cy="64.773972"
     r="1.5966069" />
  <circle
     style="fill:#ffffff;fill-opacity:1;stroke:none;stroke-width:0.951707;stroke-linecap:round;stroke-linejoin:round;stroke-dasharray:none"
     id="path24-2-6-9"
     cx="270.78214"
     cy="45.235615"
     r="1.5966069" />
  <circle
     style="fill:#ffffff;fill-opacity:1;stroke:none;stroke-width:0.951707;stroke-linecap:round;stroke-linejoin:round;stroke-dasharray:none"
     id="path24-2-6-0"
     cx="261.00058"
     cy="42.033875"
     r="1.5966069" />
  <circle
     style="fill:#ffffff;fill-opacity:1;stroke:none;stroke-width:0.951707;stroke-linecap:round;stroke-linejoin:round;stroke-dasharray:none"
     id="path24-2-6-0-9"
     cx="238.42516"
     cy="54.155231"
     r="1.5966069" />
  <circle
     style="fill:#ffffff;fill-opacity:1;stroke:none;stroke-width:0.951707;stroke-linecap:round;stroke-linejoin:round;stroke-dasharray:none"
     id="path24-2-6-0-1"
     cx="231.64476"
     cy="58.123409"
     r="1.5966069" />
  <circle
     style="fill:#ffffff;fill-opacity:1;stroke:none;stroke-width:0.951707;stroke-linecap:round;stroke-linejoin:round;stroke-dasharray:none"
     id="path24-2-6-0-4"
     cx="244.51073"
     cy="68.444611"
     r="1.5966069" />
  <circle
     style="fill:#ffffff;fill-opacity:1;stroke:none;stroke-width:0.951707;stroke-linecap:round;stroke-linejoin:round;stroke-dasharray:none"
     id="path24-2-6-0-8"
     cx="270.71747"
     cy="72.08065"
     r="1.5966069" />
  <circle
     style="fill:#ffffff;fill-opacity:1;stroke:none;stroke-width:0.951707;stroke-linecap:round;stroke-linejoin:round;stroke-dasharray:none"
     id="path24-2-6-3"
     cx="289.87418"
     cy="47.827721"
     r="1.5966069" />
  <circle
     style="fill:#ffffff;fill-opacity:1;stroke:none;stroke-width:0.951707;stroke-linecap:round;stroke-linejoin:round;stroke-dasharray:none"
     id="path24-2-6-5"
     cx="312.10925"
     cy="31.044624"
     r="1.5966069" />
  <circle
     style="fill:#ffffff;fill-opacity:1;stroke:none;stroke-width:0.951707;stroke-linecap:round;stroke-linejoin:round;stroke-dasharray:none"
     id="path24-2-6-5-3"
     cx="369.87643"
     cy="64.724609"
     r="1.5966069" />
  <circle
     style="fill:#ffffff;fill-opacity:1;stroke:none;stroke-width:0.951707;stroke-linecap:round;stroke-linejoin:round;stroke-dasharray:none"
     id="path24-2-6-5-1"
     cx="385.2576"
     cy="49.80719"
     r="1.5966069" />
  <circle
     style="fill:#ffffff;fill-opacity:1;stroke:none;stroke-width:0.951707;stroke-linecap:round;stroke-linejoin:round;stroke-dasharray:none"
     id="path24-2-6-5-6"
     cx="384.22571"
     cy="30.780025"
     r="1.5966069" />
  <circle
     style="fill:#ffffff;fill-opacity:1;stroke:none;stroke-width:0.951707;stroke-linecap:round;stroke-linejoin:round;stroke-dasharray:none"
     id="path24-2-6-5-2"
     cx="393.71332"
     cy="73.3675"
     r="1.5966069" />
  <circle
     style="fill:#ffffff;fill-opacity:1;stroke:none;stroke-width:0.951707;stroke-linecap:round;stroke-linejoin:round;stroke-dasharray:none"
     id="path24-2-6-5-61"
     cx="330.38663"
     cy="52.299896"
     r="1.5966069" />
  <circle
     style="fill:#ffffff;fill-opacity:1;stroke:none;stroke-width:0.558837;stroke-linecap:round;stroke-linejoin:round;stroke-dasharray:none"
     id="path24-2-6-5-61-5"
     cx="323.80249"
     cy="44.106136"
     r="0.93751878" />
  <circle
     style="fill:#ffffff;fill-opacity:1;stroke:none;stroke-width:0.558837;stroke-linecap:round;stroke-linejoin:round;stroke-dasharray:none"
     id="path24-2-6-5-61-5-7"
     cx="327.35364"
     cy="41.302292"
     r="0.93751878" />
  <circle
     style="fill:#ffffff;fill-opacity:1;stroke:none;stroke-width:0.558837;stroke-linecap:round;stroke-linejoin:round;stroke-dasharray:none"
     id="path24-2-6-5-61-5-7-5"
     cx="329.92545"
     cy="45.570557"
     r="0.93751878" />
  <circle
     style="fill:#ffffff;fill-opacity:1;stroke:none;stroke-width:0.558837;stroke-linecap:round;stroke-linejoin:round;stroke-dasharray:none"
     id="path24-2-6-5-61-5-7-5-92"
     cx="412.93753"
     cy="27.937519"
     r="0.93751878" />
  <circle
     style="fill:#ffffff;fill-opacity:1;stroke:none;stroke-width:0.558837;stroke-linecap:round;stroke-linejoin:round;stroke-dasharray:none"
     id="path24-2-6-5-61-5-7-5-92-6"
     cx="397.93753"
     cy="60.937519"
     r="0.93751878" />
  <circle
     style="fill:#ffffff;fill-opacity:1;stroke:none;stroke-width:0.558837;stroke-linecap:round;stroke-linejoin:round;stroke-dasharray:none"
     id="path24-2-6-5-61-5-7-5-92-6-9"
     cx="313.93753"
     cy="14.937519"
     r="0.93751878" />
  <circle
     style="fill:#ffffff;fill-opacity:1;stroke:none;stroke-width:0.558837;stroke-linecap:round;stroke-linejoin:round;stroke-dasharray:none"
     id="path24-2-6-5-61-5-7-5-9"
     cx="292.01151"
     cy="53.522427"
     r="0.93751878" />
  <circle
     style="fill:#ffffff;fill-opacity:1;stroke:none;stroke-width:0.558837;stroke-linecap:round;stroke-linejoin:round;stroke-dasharray:none"
     id="path24-2-6-5-61-5-7-5-9-7"
     cx="268.20718"
     cy="40.901676"
     r="0.93751878" />
  <circle
     style="fill:#ffffff;fill-opacity:1;stroke:none;stroke-width:0.558837;stroke-linecap:round;stroke-linejoin:round;stroke-dasharray:none"
     id="path24-2-6-5-61-5-7-5-9-7-5"
     cx="269.24997"
     cy="66.660362"
     r="0.93751878" />
  <circle
     style="fill:#ffffff;fill-opacity:1;stroke:none;stroke-width:0.558837;stroke-linecap:round;stroke-linejoin:round;stroke-dasharray:none"
     id="path24-2-6-5-61-5-7-5-9-7-5-1"
     cx="292.30984"
     cy="28.521132"
     r="0.93751878" />
  <circle
     style="fill:#ffffff;fill-opacity:1;stroke:none;stroke-width:0.558837;stroke-linecap:round;stroke-linejoin:round;stroke-dasharray:none"
     id="path24-2-6-5-61-5-7-5-9-7-5-5"
     cx="265.62338"
     cy="61.489712"
     r="0.93751878" />
  <circle
     style="fill:#ffffff;fill-opacity:1;stroke:none;stroke-width:0.558837;stroke-linecap:round;stroke-linejoin:round;stroke-dasharray:none"
     id="path24-2-6-5-61-5-7-5-9-7-5-5-7"
     cx="242.64726"
     cy="48.729683"
     r="0.93751878" />
  <circle
     style="fill:#ffffff;fill-opacity:1;stroke:none;stroke-width:0.558837;stroke-linecap:round;stroke-linejoin:round;stroke-dasharray:none"
     id="path24-2-6-5-61-5-7-5-9-7-5-5-7-4"
     cx="245.6794"
     cy="56.187801"
     r="0.93751878" />
  <circle
     style="fill:#ffffff;fill-opacity:1;stroke:none;stroke-width:0.558837;stroke-linecap:round;stroke-linejoin:round;stroke-dasharray:none"
     id="path24-2-6-5-61-5-7-5-9-7-5-5-7-4-0"
     cx="270.06006"
     cy="60.999645"
     r="0.93751878" />
  <circle
     style="fill:#ffffff;fill-opacity:1;stroke:none;stroke-width:0.951707;stroke-linecap:round;stroke-linejoin:round;stroke-dasharray:none"
     id="path24-2-6-2"
     cx="340.32098"
     cy="40.333244"
     r="1.5966069" />
  <circle
     style="fill:#ffffff;fill-opacity:1;stroke:none;stroke-width:0.951707;stroke-linecap:round;stroke-linejoin:round;stroke-dasharray:none"
     id="path24-2-6-2-3"
     cx="394.8638"
     cy="38.606747"
     r="1.5966069" />
  <circle
     style="fill:#ffffff;fill-opacity:1;stroke:none;stroke-width:0.951707;stroke-linecap:round;stroke-linejoin:round;stroke-dasharray:none"
     id="path24-2-6-2-3-1"
     cx="278.21509"
     cy="36.202148"
     r="1.5966069" />
  <circle
     style="fill:#ffffff;fill-opacity:1;stroke:none;stroke-width:0.951707;stroke-linecap:round;stroke-linejoin:round;stroke-dasharray:none"
     id="path24-2-6-89"
     cx="361.21097"
     cy="25.66876"
     r="1.5966069" />
  <circle
     style="fill:#ffffff;fill-opacity:1;stroke:none;stroke-width:1.65;stroke-linecap:round;stroke-linejoin:round;stroke-dasharray:none"
     id="path24-1"
     cx="299.32809"
     cy="41.006947"
     r="2.7680788" />
  <circle
     style="fill:#ffffff;fill-opacity:1;stroke:none;stroke-width:1.65;stroke-linecap:round;stroke-linejoin:round;stroke-dasharray:none"
     id="path24-1-5"
     cx="263.09518"
     cy="51.930351"
     r="2.7680788" />
  <circle
     style="fill:#ffffff;fill-opacity:1;stroke:none;stroke-width:1.65;stroke-linecap:round;stroke-linejoin:round;stroke-dasharray:none"
     id="path24-7"
     cx="298.62924"
     cy="58.515099"
     r="2.7680788" />
  <circle
     style="fill:#ffffff;fill-opacity:1;stroke:none;stroke-width:1.65;stroke-linecap:round;stroke-linejoin:round;stroke-dasharray:none"
     id="path24-9"
     cx="347.35748"
     cy="19.182346"
     r="2.7680788" />
  <circle
     style="fill:#ffffff;fill-opacity:1;stroke:none;stroke-width:1.65;stroke-linecap:round;stroke-linejoin:round;stroke-dasharray:none"
     id="path24-6"
     cx="367.39557"
     cy="43.921585"
     r="2.7680788" />
  <circle
     style="fill:#ffffff;fill-opacity:1;stroke:none;stroke-width:0.558837;stroke-linecap:round;stroke-linejoin:round;stroke-dasharray:none"
     id="path24-2-6-5-61-5-7-5-9-7-5-5-7-4-8"
     cx="222.99115"
     cy="38.19735"
     r="0.93751878" />
  <circle
     style="fill:#ffffff;fill-opacity:1;stroke:none;stroke-width:0.558837;stroke-linecap:round;stroke-linejoin:round;stroke-dasharray:none"
     id="path24-2-6-5-61-5-7-5-9-7-5-5-7-4-8-8"
     cx="233.67191"
     cy="50.650806"
     r="0.93751878" />
  <circle
     style="fill:#ffffff;fill-opacity:1;stroke:none;stroke-width:0.558837;stroke-linecap:round;stroke-linejoin:round;stroke-dasharray:none"
     id="path24-2-6-5-61-5-7-5-9-7-5-5-7-4-8-8-4"
     cx="242.13905"
     cy="58.817471"
     r="0.93751878" />
</svg>
